# xmcd
#
# Track frame offsets:
#	150
#	13087
#	25930
#	37982
#	57617
#	69367
#	80550
#	92575
#	103987
#	116070
#	132192
#	143375
#	158030
#	169205
#	187167
#	203292
#	213955
#	225017
#	236930
#	250740
#	268930
#
# Disc length: 3744 seconds
#
# Revision: 2
# Processed by: cddbd v1.5.2PL0 Copyright (c) Steve Scherf et al.
# Submitted via: audiograbber 1.83.01
#
DISCID=1e0e9e15
DTITLE=Various Artist - ALL TIME FAVOURITES CD 1
DYEAR=1900
DGENRE=Country
TTITLE0=LYNN ANDERSON - ROSE GARDEN
TTITLE1=PHIL EVERLY - WHEN WILL I BE LOVED
TTITLE2=TAMMY  WYNETTE - STAND BY YOUR MAN
TTITLE3=MARTY ROBBINS - EL PASO
TTITLE4=JOHNNY CASH - RING OF FIRE
TTITLE5=CONNIE FRANCIS - MY HAPPINESS
TTITLE6=GLEN CAMBELL - GALVESTON
TTITLE7=CRYSTAL GAYLE - DON'T IT MAKE MY BROWN EYES BLUE
TTITLE8=CHARLIE RICH - THE MOST BEAUTIFUL GIRL
TTITLE9=BILLIE JO SPEARS - BLANKET ON THE GROUND
TTITLE10=SONNY JAMES - YOUNG LOVE
TTITLE11=TANYA TUCKER - DELTA DAWN
TTITLE12=HANK WILLIAMS JR. - ENDLESS SLEEP
TTITLE13=RITA COOLIDGE - ONE FINE DAY
TTITLE14=LEE GREENWOOD - SOMEBODY'S GONNA LOVE YOU
TTITLE15=PATSY CLINE - STOP, LOOK AND LISTEN
TTITLE16=ROGER MILLER - KING OF THE ROAD
TTITLE17=CONNIE FRANCIS - EVERYBODY'S SOMEBODY'S FOOL
TTITLE18=TOM JONES - GREEN, GREEN GRASS OF HOME
TTITLE19=JUICE NEWTON - BREAK IT TO ME GENTLY
TTITLE20=CONWAY TWITTY - WHAT AM I LIVING FOR 
EXTD=
EXTT0=
EXTT1=
EXTT2=
EXTT3=
EXTT4=
EXTT5=
EXTT6=
EXTT7=
EXTT8=
EXTT9=
EXTT10=
EXTT11=
EXTT12=
EXTT13=
EXTT14=
EXTT15=
EXTT16=
EXTT17=
EXTT18=
EXTT19=
EXTT20=
PLAYORDER=
